<svg width="1920" height="1080" viewBox="0 0 1920 1080" fill="none" xmlns="http://www.w3.org/2000/svg">
<g clip-path="url(#clip0_951_274)">
<rect width="1920" height="1080" transform="matrix(1 0 0 -1 0 1080)" fill="white"/>
<rect width="1920" height="1080" fill="url(#paint0_linear_951_274)"/>
<circle cx="173.5" cy="394.5" r="480.5" fill="url(#paint1_linear_951_274)"/>
<circle cx="932.99" cy="926.99" r="256.5" transform="rotate(-150.239 932.99 926.99)" fill="url(#paint2_linear_951_274)"/>
<circle cx="1381.33" cy="626.334" r="125.366" transform="rotate(-61.1067 1381.33 626.334)" fill="url(#paint3_linear_951_274)"/>
<circle cx="1601.17" cy="830.172" r="47.966" transform="rotate(-61.1067 1601.17 830.172)" fill="url(#paint4_linear_951_274)"/>
<circle cx="1679.05" cy="263.159" r="25.0599" transform="rotate(-61.1067 1679.05 263.159)" fill="url(#paint5_linear_951_274)"/>
</g>
<defs>
<linearGradient id="paint0_linear_951_274" x1="1920" y1="150.904" x2="1649.68" y2="1411.3" gradientUnits="userSpaceOnUse">
<stop offset="0.174474" stop-color="#5ADFAA"/>
<stop offset="1" stop-color="#49C7F9"/>
</linearGradient>
<linearGradient id="paint1_linear_951_274" x1="553.828" y1="-44.4653" x2="81.472" y2="875" gradientUnits="userSpaceOnUse">
<stop offset="0.09303" stop-color="#48C3FE"/>
<stop offset="0.749432" stop-color="#1975FB"/>
</linearGradient>
<linearGradient id="paint2_linear_951_274" x1="1136.02" y1="692.662" x2="883.864" y2="1183.49" gradientUnits="userSpaceOnUse">
<stop offset="0.09303" stop-color="#48C3FE"/>
<stop offset="0.749432" stop-color="#1975FB"/>
</linearGradient>
<linearGradient id="paint3_linear_951_274" x1="1480.56" y1="511.805" x2="1357.32" y2="751.7" gradientUnits="userSpaceOnUse">
<stop offset="0.09303" stop-color="#48C3FE"/>
<stop offset="0.749432" stop-color="#1975FB"/>
</linearGradient>
<linearGradient id="paint4_linear_951_274" x1="1639.14" y1="786.352" x2="1591.98" y2="878.138" gradientUnits="userSpaceOnUse">
<stop offset="0.09303" stop-color="#48C3FE"/>
<stop offset="0.749432" stop-color="#1975FB"/>
</linearGradient>
<linearGradient id="paint5_linear_951_274" x1="1698.88" y1="240.265" x2="1674.25" y2="288.219" gradientUnits="userSpaceOnUse">
<stop offset="0.09303" stop-color="#48C3FE"/>
<stop offset="0.749432" stop-color="#1975FB"/>
</linearGradient>
<clipPath id="clip0_951_274">
<rect width="1920" height="1080" fill="white" transform="matrix(1 0 0 -1 0 1080)"/>
</clipPath>
</defs>
</svg>
